<?xml version="1.0" encoding="UTF-8" standalone="no"?>
<svg width="20px" height="12px" viewBox="0 0 20 12" version="1.1" xmlns="http://www.w3.org/2000/svg" xmlns:xlink="http://www.w3.org/1999/xlink">
    <!-- Generator: Sketch 40.1 (33804) - http://www.bohemiancoding.com/sketch -->
    <title>Slice 1</title>
    <desc>Created with Sketch.</desc>
    <defs></defs>
    <g id="Page-1" stroke="none" stroke-width="1" fill="none" fill-rule="evenodd">
        <g id="keyboard" fill="#FFFFFF">
            <g id="Page-1">
                <g id="keyboard">
                    <path d="M0,2.0085302 C0,0.8992496 0.898212381,0 1.99079514,0 L18.0092049,0 C19.1086907,0 20,0.90195036 20,2.0085302 L20,9.9914698 C20,11.1007504 19.1017876,12 18.0092049,12 L1.99079514,12 C0.891309342,12 0,11.0980496 0,9.9914698 L0,2.0085302 L0,2.0085302 Z M2,2 L4,2 L4,4 L2,4 L2,2 L2,2 Z M3,5 L5,5 L5,7 L3,7 L3,5 L3,5 Z M2,8 L4,8 L4,10 L2,10 L2,8 L2,8 Z M5,8 L15,8 L15,10 L5,10 L5,8 L5,8 Z M16,8 L18,8 L18,10 L16,10 L16,8 L16,8 Z M6,5 L8,5 L8,7 L6,7 L6,5 L6,5 Z M9,5 L11,5 L11,7 L9,7 L9,5 L9,5 Z M12,5 L14,5 L14,7 L12,7 L12,5 L12,5 Z M15,5 L17,5 L17,7 L15,7 L15,5 L15,5 Z M5,2 L7,2 L7,4 L5,4 L5,2 L5,2 Z M8,2 L10,2 L10,4 L8,4 L8,2 L8,2 Z M11,2 L13,2 L13,4 L11,4 L11,2 L11,2 Z M14,2 L18,2 L18,4 L14,4 L14,2 L14,2 Z" id="Combined-Shape"></path>
                </g>
            </g>
        </g>
    </g>
</svg>